<mxfile host="app.diagrams.net" modified="2021-03-12T23:51:50.648Z" agent="5.0 (Windows NT 10.0; Win64; x64) AppleWebKit/537.36 (KHTML, like Gecko) Chrome/87.0.4280.141 Safari/537.36 OPR/73.0.3856.400" etag="wmAWuLiCebZbeXa3-nol" version="14.4.4" type="github" pages="3">
  <diagram id="6a731a19-8d31-9384-78a2-239565b7b9f0" name="Multiplicação">
    <mxGraphModel dx="1973" dy="1146" grid="1" gridSize="10" guides="1" tooltips="1" connect="1" arrows="1" fold="1" page="1" pageScale="1" pageWidth="1169" pageHeight="827" background="#ffffff" math="0" shadow="0">
      <root>
        <mxCell id="0" />
        <mxCell id="1" parent="0" />
        <mxCell id="2" value="INÍCIO" style="shape=mxgraph.flowchart.terminator;strokeWidth=2;gradientColor=none;gradientDirection=north;fontStyle=0;html=1;" parent="1" vertex="1">
          <mxGeometry x="200" y="180" width="120" height="30" as="geometry" />
        </mxCell>
        <mxCell id="7" style="fontStyle=1;strokeColor=#003366;strokeWidth=1;html=1;" parent="1" edge="1">
          <mxGeometry relative="1" as="geometry">
            <mxPoint x="350" y="195" as="sourcePoint" />
            <mxPoint x="470" y="195" as="targetPoint" />
          </mxGeometry>
        </mxCell>
        <mxCell id="40" value="FIM" style="shape=mxgraph.flowchart.terminator;strokeWidth=2;gradientColor=none;gradientDirection=north;fontStyle=0;html=1;" parent="1" vertex="1">
          <mxGeometry x="870" y="545" width="120" height="30" as="geometry" />
        </mxCell>
        <mxCell id="LU1C0yyP3cJCKCwgAdfh-56" value="N1 e N2" style="shape=parallelogram;perimeter=parallelogramPerimeter;whiteSpace=wrap;html=1;fixedSize=1;" vertex="1" parent="1">
          <mxGeometry x="500" y="180" width="160" height="40" as="geometry" />
        </mxCell>
        <mxCell id="LU1C0yyP3cJCKCwgAdfh-57" style="fontStyle=1;strokeColor=#003366;strokeWidth=1;html=1;" edge="1" parent="1">
          <mxGeometry relative="1" as="geometry">
            <mxPoint x="580" y="250" as="sourcePoint" />
            <mxPoint x="580" y="320" as="targetPoint" />
          </mxGeometry>
        </mxCell>
        <mxCell id="LU1C0yyP3cJCKCwgAdfh-58" value="M = N1 * N2" style="rounded=0;whiteSpace=wrap;html=1;" vertex="1" parent="1">
          <mxGeometry x="520" y="340" width="120" height="60" as="geometry" />
        </mxCell>
        <mxCell id="LU1C0yyP3cJCKCwgAdfh-59" style="fontStyle=1;strokeColor=#003366;strokeWidth=1;html=1;" edge="1" parent="1">
          <mxGeometry relative="1" as="geometry">
            <mxPoint x="579.5" y="420" as="sourcePoint" />
            <mxPoint x="580" y="500" as="targetPoint" />
          </mxGeometry>
        </mxCell>
        <mxCell id="LU1C0yyP3cJCKCwgAdfh-60" value="M" style="shape=document;whiteSpace=wrap;html=1;boundedLbl=1;" vertex="1" parent="1">
          <mxGeometry x="525" y="520" width="120" height="80" as="geometry" />
        </mxCell>
        <mxCell id="LU1C0yyP3cJCKCwgAdfh-62" style="fontStyle=1;strokeColor=#003366;strokeWidth=1;html=1;" edge="1" parent="1">
          <mxGeometry relative="1" as="geometry">
            <mxPoint x="700" y="559.5" as="sourcePoint" />
            <mxPoint x="800.5" y="559.5" as="targetPoint" />
          </mxGeometry>
        </mxCell>
      </root>
    </mxGraphModel>
  </diagram>
  <diagram id="kenWpWwpaFiRp5aeq8Sd" name="Divisão">
    <mxGraphModel dx="1381" dy="802" grid="1" gridSize="10" guides="1" tooltips="1" connect="1" arrows="1" fold="1" page="1" pageScale="1" pageWidth="827" pageHeight="1169" math="0" shadow="0">
      <root>
        <mxCell id="xMkWJojAh0Gv_-Ls1WpS-0" />
        <mxCell id="xMkWJojAh0Gv_-Ls1WpS-1" parent="xMkWJojAh0Gv_-Ls1WpS-0" />
        <mxCell id="xMkWJojAh0Gv_-Ls1WpS-2" value="INÍCIO" style="shape=mxgraph.flowchart.terminator;strokeWidth=2;gradientColor=none;gradientDirection=north;fontStyle=0;html=1;" vertex="1" parent="xMkWJojAh0Gv_-Ls1WpS-1">
          <mxGeometry x="140" y="170" width="120" height="30" as="geometry" />
        </mxCell>
        <mxCell id="xMkWJojAh0Gv_-Ls1WpS-3" style="fontStyle=1;strokeColor=#003366;strokeWidth=1;html=1;" edge="1" parent="xMkWJojAh0Gv_-Ls1WpS-1">
          <mxGeometry relative="1" as="geometry">
            <mxPoint x="290" y="185" as="sourcePoint" />
            <mxPoint x="410" y="185" as="targetPoint" />
          </mxGeometry>
        </mxCell>
        <mxCell id="xMkWJojAh0Gv_-Ls1WpS-4" value="FIM" style="shape=mxgraph.flowchart.terminator;strokeWidth=2;gradientColor=none;gradientDirection=north;fontStyle=0;html=1;" vertex="1" parent="xMkWJojAh0Gv_-Ls1WpS-1">
          <mxGeometry x="460" y="910" width="120" height="30" as="geometry" />
        </mxCell>
        <mxCell id="xMkWJojAh0Gv_-Ls1WpS-5" value="N1 e N2" style="shape=parallelogram;perimeter=parallelogramPerimeter;whiteSpace=wrap;html=1;fixedSize=1;" vertex="1" parent="xMkWJojAh0Gv_-Ls1WpS-1">
          <mxGeometry x="440" y="170" width="160" height="40" as="geometry" />
        </mxCell>
        <mxCell id="xMkWJojAh0Gv_-Ls1WpS-6" style="fontStyle=1;strokeColor=#003366;strokeWidth=1;html=1;" edge="1" parent="xMkWJojAh0Gv_-Ls1WpS-1">
          <mxGeometry relative="1" as="geometry">
            <mxPoint x="520" y="240" as="sourcePoint" />
            <mxPoint x="520" y="310" as="targetPoint" />
          </mxGeometry>
        </mxCell>
        <mxCell id="xMkWJojAh0Gv_-Ls1WpS-7" value="M = N1 / N2" style="rounded=0;whiteSpace=wrap;html=1;" vertex="1" parent="xMkWJojAh0Gv_-Ls1WpS-1">
          <mxGeometry x="460" y="490" width="120" height="60" as="geometry" />
        </mxCell>
        <mxCell id="xMkWJojAh0Gv_-Ls1WpS-8" style="fontStyle=1;strokeColor=#003366;strokeWidth=1;html=1;" edge="1" parent="xMkWJojAh0Gv_-Ls1WpS-1">
          <mxGeometry relative="1" as="geometry">
            <mxPoint x="519.4999999999998" y="570" as="sourcePoint" />
            <mxPoint x="520" y="650" as="targetPoint" />
          </mxGeometry>
        </mxCell>
        <mxCell id="xMkWJojAh0Gv_-Ls1WpS-9" value="M" style="shape=document;whiteSpace=wrap;html=1;boundedLbl=1;" vertex="1" parent="xMkWJojAh0Gv_-Ls1WpS-1">
          <mxGeometry x="460" y="670" width="120" height="80" as="geometry" />
        </mxCell>
        <mxCell id="BsfA47QbojoCzTs0ilwZ-6" style="fontStyle=1;strokeColor=#003366;strokeWidth=1;html=1;" edge="1" parent="xMkWJojAh0Gv_-Ls1WpS-1">
          <mxGeometry relative="1" as="geometry">
            <mxPoint x="430" y="359.5" as="sourcePoint" />
            <mxPoint x="440" y="920" as="targetPoint" />
            <Array as="points">
              <mxPoint x="330" y="360" />
              <mxPoint x="330" y="920" />
            </Array>
          </mxGeometry>
        </mxCell>
        <mxCell id="B_r4ZpfRl5fcoEnjRwoc-1" value="SIM" style="edgeLabel;html=1;align=center;verticalAlign=middle;resizable=0;points=[];" vertex="1" connectable="0" parent="BsfA47QbojoCzTs0ilwZ-6">
          <mxGeometry x="-0.9039" relative="1" as="geometry">
            <mxPoint as="offset" />
          </mxGeometry>
        </mxCell>
        <mxCell id="BsfA47QbojoCzTs0ilwZ-12" value="N2 = 0?" style="rhombus;whiteSpace=wrap;html=1;" vertex="1" parent="xMkWJojAh0Gv_-Ls1WpS-1">
          <mxGeometry x="455" y="320" width="130" height="80" as="geometry" />
        </mxCell>
        <mxCell id="BsfA47QbojoCzTs0ilwZ-17" style="fontStyle=1;strokeColor=#003366;strokeWidth=1;html=1;" edge="1" parent="xMkWJojAh0Gv_-Ls1WpS-1">
          <mxGeometry relative="1" as="geometry">
            <mxPoint x="519.5" y="770" as="sourcePoint" />
            <mxPoint x="520" y="890" as="targetPoint" />
          </mxGeometry>
        </mxCell>
        <mxCell id="B_r4ZpfRl5fcoEnjRwoc-2" style="fontStyle=1;strokeColor=#003366;strokeWidth=1;html=1;" edge="1" parent="xMkWJojAh0Gv_-Ls1WpS-1">
          <mxGeometry relative="1" as="geometry">
            <mxPoint x="519.5" y="410" as="sourcePoint" />
            <mxPoint x="519.5" y="480" as="targetPoint" />
          </mxGeometry>
        </mxCell>
        <mxCell id="B_r4ZpfRl5fcoEnjRwoc-3" value="NÃO" style="edgeLabel;html=1;align=center;verticalAlign=middle;resizable=0;points=[];" vertex="1" connectable="0" parent="B_r4ZpfRl5fcoEnjRwoc-2">
          <mxGeometry x="-0.6" y="2" relative="1" as="geometry">
            <mxPoint as="offset" />
          </mxGeometry>
        </mxCell>
      </root>
    </mxGraphModel>
  </diagram>
  <diagram id="O8vIipC1dz4JDKcAhrTv" name="Média Aritmética">
    <mxGraphModel dx="1381" dy="802" grid="1" gridSize="10" guides="1" tooltips="1" connect="1" arrows="1" fold="1" page="1" pageScale="1" pageWidth="827" pageHeight="1169" math="0" shadow="0">
      <root>
        <mxCell id="Pat2zKEBQX6RVKRHCQBX-0" />
        <mxCell id="Pat2zKEBQX6RVKRHCQBX-1" parent="Pat2zKEBQX6RVKRHCQBX-0" />
        <mxCell id="33ZtAw3eHYknO0SPL2ND-0" value="INÍCIO" style="shape=mxgraph.flowchart.terminator;strokeWidth=2;gradientColor=none;gradientDirection=north;fontStyle=0;html=1;" vertex="1" parent="Pat2zKEBQX6RVKRHCQBX-1">
          <mxGeometry x="30" y="170" width="120" height="30" as="geometry" />
        </mxCell>
        <mxCell id="33ZtAw3eHYknO0SPL2ND-1" style="fontStyle=1;strokeColor=#003366;strokeWidth=1;html=1;" edge="1" parent="Pat2zKEBQX6RVKRHCQBX-1">
          <mxGeometry relative="1" as="geometry">
            <mxPoint x="180" y="185" as="sourcePoint" />
            <mxPoint x="300" y="185" as="targetPoint" />
          </mxGeometry>
        </mxCell>
        <mxCell id="33ZtAw3eHYknO0SPL2ND-2" value="FIM" style="shape=mxgraph.flowchart.terminator;strokeWidth=2;gradientColor=none;gradientDirection=north;fontStyle=0;html=1;" vertex="1" parent="Pat2zKEBQX6RVKRHCQBX-1">
          <mxGeometry x="650" y="862.5" width="120" height="30" as="geometry" />
        </mxCell>
        <mxCell id="33ZtAw3eHYknO0SPL2ND-3" value="N1, N2 e N3" style="shape=parallelogram;perimeter=parallelogramPerimeter;whiteSpace=wrap;html=1;fixedSize=1;" vertex="1" parent="Pat2zKEBQX6RVKRHCQBX-1">
          <mxGeometry x="330" y="170" width="160" height="40" as="geometry" />
        </mxCell>
        <mxCell id="33ZtAw3eHYknO0SPL2ND-4" style="fontStyle=1;strokeColor=#003366;strokeWidth=1;html=1;" edge="1" parent="Pat2zKEBQX6RVKRHCQBX-1">
          <mxGeometry relative="1" as="geometry">
            <mxPoint x="410" y="240" as="sourcePoint" />
            <mxPoint x="410" y="310" as="targetPoint" />
          </mxGeometry>
        </mxCell>
        <mxCell id="G5MJIyd-MgWeJ61INzSc-0" value="T = N1 + N2 + N3" style="rounded=0;whiteSpace=wrap;html=1;" vertex="1" parent="Pat2zKEBQX6RVKRHCQBX-1">
          <mxGeometry x="350" y="330" width="120" height="60" as="geometry" />
        </mxCell>
        <mxCell id="G5MJIyd-MgWeJ61INzSc-2" style="fontStyle=1;strokeColor=#003366;strokeWidth=1;html=1;" edge="1" parent="Pat2zKEBQX6RVKRHCQBX-1">
          <mxGeometry relative="1" as="geometry">
            <mxPoint x="410" y="410" as="sourcePoint" />
            <mxPoint x="410" y="480" as="targetPoint" />
          </mxGeometry>
        </mxCell>
        <mxCell id="G5MJIyd-MgWeJ61INzSc-3" value="M = T / 3" style="rounded=0;whiteSpace=wrap;html=1;" vertex="1" parent="Pat2zKEBQX6RVKRHCQBX-1">
          <mxGeometry x="350" y="500" width="120" height="60" as="geometry" />
        </mxCell>
        <mxCell id="G5MJIyd-MgWeJ61INzSc-4" value="&lt;b&gt;T = TOTAL&lt;br&gt;M = MÉDIA&lt;br&gt;&lt;/b&gt;" style="text;html=1;resizable=0;autosize=1;align=center;verticalAlign=middle;points=[];fillColor=none;strokeColor=none;rounded=0;" vertex="1" parent="Pat2zKEBQX6RVKRHCQBX-1">
          <mxGeometry x="540" y="430" width="80" height="30" as="geometry" />
        </mxCell>
        <mxCell id="G5MJIyd-MgWeJ61INzSc-5" style="fontStyle=1;strokeColor=#003366;strokeWidth=1;html=1;" edge="1" parent="Pat2zKEBQX6RVKRHCQBX-1">
          <mxGeometry relative="1" as="geometry">
            <mxPoint x="409.5" y="580" as="sourcePoint" />
            <mxPoint x="409.5" y="650" as="targetPoint" />
          </mxGeometry>
        </mxCell>
        <mxCell id="G5MJIyd-MgWeJ61INzSc-6" value="M" style="rounded=0;whiteSpace=wrap;html=1;" vertex="1" parent="Pat2zKEBQX6RVKRHCQBX-1">
          <mxGeometry x="350" y="670" width="120" height="60" as="geometry" />
        </mxCell>
        <mxCell id="G5MJIyd-MgWeJ61INzSc-10" value="M &amp;gt; 7" style="rhombus;whiteSpace=wrap;html=1;" vertex="1" parent="Pat2zKEBQX6RVKRHCQBX-1">
          <mxGeometry x="340" y="845" width="140" height="65" as="geometry" />
        </mxCell>
        <mxCell id="G5MJIyd-MgWeJ61INzSc-11" style="fontStyle=1;strokeColor=#003366;strokeWidth=1;html=1;" edge="1" parent="Pat2zKEBQX6RVKRHCQBX-1">
          <mxGeometry relative="1" as="geometry">
            <mxPoint x="409.5" y="750" as="sourcePoint" />
            <mxPoint x="409.5" y="820" as="targetPoint" />
          </mxGeometry>
        </mxCell>
        <mxCell id="G5MJIyd-MgWeJ61INzSc-12" style="fontStyle=1;strokeColor=#003366;strokeWidth=1;html=1;" edge="1" parent="Pat2zKEBQX6RVKRHCQBX-1">
          <mxGeometry relative="1" as="geometry">
            <mxPoint x="510" y="877" as="sourcePoint" />
            <mxPoint x="630" y="877" as="targetPoint" />
          </mxGeometry>
        </mxCell>
        <mxCell id="G5MJIyd-MgWeJ61INzSc-13" value="SIM" style="edgeLabel;html=1;align=center;verticalAlign=middle;resizable=0;points=[];" vertex="1" connectable="0" parent="G5MJIyd-MgWeJ61INzSc-12">
          <mxGeometry x="0.2167" y="-3" relative="1" as="geometry">
            <mxPoint as="offset" />
          </mxGeometry>
        </mxCell>
        <mxCell id="G5MJIyd-MgWeJ61INzSc-14" value="REPROVADO" style="shape=mxgraph.flowchart.terminator;strokeWidth=2;gradientColor=none;gradientDirection=north;fontStyle=0;html=1;" vertex="1" parent="Pat2zKEBQX6RVKRHCQBX-1">
          <mxGeometry x="650" y="1000" width="120" height="30" as="geometry" />
        </mxCell>
        <mxCell id="G5MJIyd-MgWeJ61INzSc-15" value="" style="endArrow=classic;html=1;" edge="1" parent="Pat2zKEBQX6RVKRHCQBX-1">
          <mxGeometry width="50" height="50" relative="1" as="geometry">
            <mxPoint x="410" y="930" as="sourcePoint" />
            <mxPoint x="640" y="1010" as="targetPoint" />
            <Array as="points">
              <mxPoint x="410" y="1010" />
            </Array>
          </mxGeometry>
        </mxCell>
        <mxCell id="G5MJIyd-MgWeJ61INzSc-16" value="NÃO" style="edgeLabel;html=1;align=center;verticalAlign=middle;resizable=0;points=[];" vertex="1" connectable="0" parent="G5MJIyd-MgWeJ61INzSc-15">
          <mxGeometry x="0.129" y="-1" relative="1" as="geometry">
            <mxPoint as="offset" />
          </mxGeometry>
        </mxCell>
      </root>
    </mxGraphModel>
  </diagram>
</mxfile>
